<svg width="96" height="28" viewBox="0 0 96 28" fill="none" xmlns="http://www.w3.org/2000/svg">
<g clip-path="url(#clip0_300_314)">
<mask id="mask0_300_314" style="mask-type:alpha" maskUnits="userSpaceOnUse" x="-1" y="-1" width="31" height="30">
<path d="M-0.349609 -0.875H29.2961V28.875H-0.349609V-0.875Z" fill="white"/>
</mask>
<g mask="url(#mask0_300_314)">
<path d="M16.9943 21.1351L19.7192 25.8645L21.0357 25.0464L21.4977 23.4801L18.5724 18.3964L16.9943 21.1351ZM8.17483 2.40574L6.88867 3.52574L10.3414 9.51512L11.9155 6.78074L8.7632 1.30762L8.17483 2.40574ZM11.1393 17.0445L7.30281 23.7076L7.78229 25.4795L8.95938 26.3151L14.4918 16.7032L16.07 13.9601L22.191 3.31137L21.1752 1.89387L20.8308 1.39949L19.3397 2.78637L11.1393 17.0445Z" fill="#D24D57"/>
<path d="M8.05189 0.0654297L6.47355 2.81293H6.47791L1.63871 11.2392L1.63435 11.2348L0.0605469 13.9779L8.05189 27.8904L9.63005 25.1517L3.21252 13.9823L9.63005 2.81293H14.2208L15.799 0.0654297H8.05189ZM19.3215 2.8173L25.7345 13.9823L19.3215 25.1473H14.7308L13.157 27.8904H20.8997L22.4778 25.1473L27.3127 16.7254L28.891 13.9867L27.3172 11.2261L22.4737 2.81293L20.904 0.0654297L19.3215 2.8173Z" fill="#446CB3"/>
</g>
<path fill-rule="evenodd" clip-rule="evenodd" d="M42.4432 8.99389L39.5196 13.2728L36.5853 8.99389H34.2504L38.3267 14.7379L34.041 20.7546H36.3661L39.5189 16.2224L42.6416 20.7546H44.9667L40.6814 14.7381L44.7576 8.99389H42.4432ZM51.297 10.536C52.15 10.536 52.8131 10.8121 53.2675 11.3562C53.7066 11.8819 53.94 12.6456 53.9609 13.6274H48.3037C48.4142 12.6817 48.72 11.9286 49.2127 11.3868C49.7263 10.8225 50.4274 10.536 51.297 10.536ZM51.3179 8.78459C49.7503 8.78459 48.4832 9.35159 47.5512 10.4693C46.6257 11.5799 46.1564 13.0933 46.1564 14.9682C46.1564 16.8328 46.6628 18.3139 47.6617 19.3691C48.6621 20.4273 50.0434 20.9637 51.766 20.9637C52.5439 20.9637 53.2184 20.9046 53.7714 20.7878C54.324 20.6713 54.9173 20.4763 55.5351 20.2089L55.6246 20.1703V18.299L55.418 18.3877C54.2399 18.8935 53.0325 19.1495 51.8285 19.1495C50.7096 19.1495 49.8328 18.8137 49.2224 18.1515C48.6321 17.511 48.3055 16.5646 48.2509 15.3368H56.1144V14.0897C56.1144 12.5117 55.6809 11.2206 54.8267 10.2521C53.9672 9.27827 52.7866 8.78459 51.3177 8.78459H51.3179ZM64.3143 8.78477C63.5102 8.78477 62.7697 8.94629 62.1131 9.26497C61.532 9.54724 61.059 9.93609 60.7029 10.424L60.4464 8.99389H58.7672V20.7544H60.7938V14.5918C60.7938 13.1428 61.0625 12.0951 61.5916 11.4778C62.1155 10.8667 62.9616 10.5568 64.1057 10.5568C64.9621 10.5568 65.595 10.7731 65.9878 11.1991C66.3833 11.6292 66.584 12.2989 66.584 13.1902V20.7542H68.6106V13.1276C68.6106 11.6282 68.2444 10.5167 67.5225 9.82479C66.8024 9.13459 65.7231 8.78477 64.3143 8.78477ZM76.3312 19.2123C75.3372 19.2123 74.6061 18.8667 74.0958 18.155C73.5822 17.4383 73.3216 16.3525 73.3216 14.9266C73.3216 13.5203 73.5846 12.4206 74.1033 11.6583C74.6171 10.9028 75.339 10.536 76.3105 10.536C77.4379 10.536 78.2665 10.8667 78.7728 11.5195C79.288 12.1833 79.5492 13.3225 79.5492 14.9054V15.2717C79.5492 16.6657 79.2925 17.684 78.7861 18.2992C78.2867 18.905 77.4607 19.2123 76.3312 19.2123ZM79.5495 9.00422L79.5917 9.81447L79.6375 10.3353C78.7927 9.30592 77.6081 8.78477 76.1124 8.78477C74.5851 8.78477 73.3749 9.33112 72.5156 10.4093C71.6641 11.4773 71.2324 12.9902 71.2324 14.9054C71.2324 16.8213 71.6627 18.324 72.5112 19.3712C73.3669 20.4279 74.5786 20.9637 76.1125 20.9637C77.6593 20.9637 78.8591 20.4184 79.6825 19.3423L79.8933 20.7546H81.5758V4.18262H79.5492L79.5495 9.00422ZM85.972 4.73702C85.6421 4.73702 85.3623 4.84377 85.1404 5.05482C84.9158 5.26814 84.8024 5.59837 84.8024 6.03622C84.8024 6.46619 84.9153 6.79607 85.1383 7.01569C85.3606 7.23497 85.6409 7.34609 85.9718 7.34609C86.2875 7.34609 86.5638 7.23549 86.7931 7.01779C87.0243 6.79764 87.1414 6.46742 87.1414 6.03622C87.1414 5.60467 87.0239 5.27619 86.792 5.05937C86.5629 4.84534 86.287 4.73702 85.9718 4.73702H85.972ZM84.948 20.7544H86.9746V8.99407H84.948V20.7544ZM95.7065 19.0298C95.5462 19.077 95.3245 19.1225 95.0473 19.167C94.7714 19.2107 94.4811 19.2335 94.1847 19.2335C93.6544 19.2335 93.2509 19.0683 92.9512 18.7288C92.6508 18.3893 92.4984 17.8876 92.4984 17.238V10.6406H95.8129V8.99389H92.4984V6.33739H91.2394L90.4979 8.82502L88.8358 9.55809V10.6406H90.4718V17.3113C90.4718 19.7347 91.637 20.9635 93.9346 20.9635C94.2309 20.9635 94.5705 20.9329 94.943 20.8725C95.3254 20.8108 95.6098 20.7331 95.8124 20.6352L95.896 20.5948V18.9743L95.7065 19.03V19.0298Z" fill="#446CB3"/>
</g>
<defs>
<clipPath id="clip0_300_314">
<rect width="96" height="28" fill="white"/>
</clipPath>
</defs>
</svg>
