<svg width="28" height="28" viewBox="0 0 28 28" fill="none" xmlns="http://www.w3.org/2000/svg">
<circle cx="14" cy="14" r="14" fill="#FCFCFC"/>
<path d="M13.9992 10.5332C13.0795 10.5332 12.1974 10.8986 11.547 11.549C10.8966 12.1993 10.5313 13.0814 10.5312 14.0012C10.5313 14.921 10.8966 15.8031 11.547 16.4534C12.1974 17.1038 13.0795 17.4692 13.9992 17.4692C14.919 17.4692 15.8011 17.1038 16.4515 16.4534C17.1019 15.8031 17.4672 14.921 17.4672 14.0012C17.4672 13.0814 17.1019 12.1993 16.4515 11.549C15.8011 10.8986 14.919 10.5332 13.9992 10.5332ZM13.9992 16.2535C13.4017 16.2535 12.8287 16.0161 12.4061 15.5936C11.9836 15.171 11.7463 14.598 11.7463 14.0005C11.7463 13.4029 11.9836 12.8299 12.4061 12.4073C12.8287 11.9848 13.4017 11.7475 13.9992 11.7475C14.5968 11.7475 15.1698 11.9848 15.5924 12.4073C16.0149 12.8299 16.2523 13.4029 16.2523 14.0005C16.2523 14.598 16.0149 15.171 15.5924 15.5936C15.1698 16.0161 14.5968 16.2535 13.9992 16.2535Z" fill="#040404"/>
<path d="M17.6054 11.2147C18.0519 11.2147 18.4139 10.8527 18.4139 10.4062C18.4139 9.95963 18.0519 9.59766 17.6054 9.59766C17.1589 9.59766 16.7969 9.95963 16.7969 10.4062C16.7969 10.8527 17.1589 11.2147 17.6054 11.2147Z" fill="#040404"/>
<path d="M20.4002 9.58341C20.2266 9.13504 19.9613 8.72787 19.6212 8.38795C19.2812 8.04803 18.8739 7.78286 18.4255 7.60941C17.9007 7.41242 17.3463 7.30591 16.786 7.29441C16.0637 7.26291 15.835 7.25391 14.0035 7.25391C12.172 7.25391 11.9372 7.25391 11.221 7.29441C10.661 7.30532 10.107 7.41186 9.58295 7.60941C9.13441 7.78266 8.72703 8.04776 8.38695 8.3877C8.04688 8.72765 7.78162 9.13492 7.6082 9.58341C7.41118 10.1081 7.30491 10.6625 7.29395 11.2229C7.2617 11.9444 7.25195 12.1732 7.25195 14.0054C7.25195 15.8369 7.25195 16.0702 7.29395 16.7879C7.3052 17.3489 7.41095 17.9024 7.6082 18.4282C7.78211 18.8765 8.04763 19.2836 8.38778 19.6235C8.72794 19.9634 9.13525 20.2286 9.5837 20.4022C10.1068 20.6071 10.661 20.7212 11.2225 20.7397C11.9447 20.7712 12.1735 20.7809 14.005 20.7809C15.8365 20.7809 16.0712 20.7809 16.7875 20.7397C17.3478 20.7283 17.9021 20.622 18.427 20.4254C18.8753 20.2515 19.2824 19.9861 19.6224 19.6461C19.9624 19.3061 20.2278 18.899 20.4017 18.4507C20.599 17.9257 20.7047 17.3722 20.716 16.8112C20.7482 16.0897 20.758 15.8609 20.758 14.0287C20.758 12.1964 20.758 11.9639 20.716 11.2462C20.7072 10.6779 20.6004 10.1153 20.4002 9.58341ZM19.4867 16.7324C19.4819 17.1646 19.403 17.5928 19.2535 17.9984C19.1408 18.2901 18.9684 18.5549 18.7473 18.7759C18.5261 18.9969 18.2612 19.1692 17.9695 19.2817C17.5684 19.4305 17.1447 19.5094 16.717 19.5149C16.0045 19.5479 15.8035 19.5562 13.9765 19.5562C12.148 19.5562 11.9612 19.5562 11.2352 19.5149C10.8076 19.5097 10.3842 19.4308 9.98345 19.2817C9.69072 19.1699 9.4247 18.9979 9.20262 18.7769C8.98054 18.5558 8.80733 18.2906 8.6942 17.9984C8.54679 17.5972 8.46794 17.174 8.46095 16.7467C8.4287 16.0342 8.4212 15.8332 8.4212 14.0062C8.4212 12.1784 8.4212 11.9917 8.46095 11.2649C8.4658 10.8329 8.54469 10.405 8.6942 9.99966C8.92295 9.40791 9.3917 8.94216 9.98345 8.71566C10.3844 8.56726 10.8077 8.48838 11.2352 8.48241C11.9485 8.45016 12.1487 8.44116 13.9765 8.44116C15.8042 8.44116 15.9917 8.44116 16.717 8.48241C17.1448 8.48755 17.5685 8.56646 17.9695 8.71566C18.2611 8.82836 18.5261 9.00081 18.7472 9.22193C18.9683 9.44305 19.1407 9.70796 19.2535 9.99966C19.4009 10.4009 19.4797 10.824 19.4867 11.2514C19.519 11.9647 19.5272 12.1649 19.5272 13.9927C19.5272 15.8197 19.5272 16.0162 19.495 16.7332H19.4867V16.7324Z" fill="#040404"/>
</svg>
