<svg width="28" height="28" viewBox="0 0 28 28" fill="none" xmlns="http://www.w3.org/2000/svg">
<circle cx="14" cy="14" r="14" fill="#FCFCFC"/>
<path d="M8.7367 10.3972C9.643 10.3972 10.3777 9.66253 10.3777 8.75623C10.3777 7.84993 9.643 7.11523 8.7367 7.11523C7.8304 7.11523 7.0957 7.84993 7.0957 8.75623C7.0957 9.66253 7.8304 10.3972 8.7367 10.3972Z" fill="#040404"/>
<path d="M11.9268 11.641V20.7453H14.7536V16.243C14.7536 15.055 14.9771 13.9045 16.4501 13.9045C17.9028 13.9045 17.9208 15.2628 17.9208 16.318V20.746H20.7491V15.7533C20.7491 13.3008 20.2211 11.416 17.3546 11.416C15.9783 11.416 15.0558 12.1713 14.6786 12.886H14.6403V11.641H11.9268ZM7.32031 11.641H10.1516V20.7453H7.32031V11.641Z" fill="#040404"/>
</svg>
