<svg width="28" height="28" viewBox="0 0 28 28" fill="none" xmlns="http://www.w3.org/2000/svg">
<circle cx="14" cy="14" r="14" fill="#FCFCFC"/>
<path d="M19.7247 10.9972C19.7345 11.1284 19.7345 11.2589 19.7345 11.3894C19.7345 15.3832 16.6947 19.9852 11.1395 19.9852C9.428 19.9852 7.838 19.4894 6.5 18.6284C6.743 18.6562 6.977 18.6659 7.22975 18.6659C8.58949 18.6692 9.91073 18.2145 10.9805 17.3752C10.3501 17.3638 9.73893 17.1558 9.23243 16.7802C8.72593 16.4047 8.34934 15.8803 8.15525 15.2804C8.342 15.3082 8.5295 15.3269 8.726 15.3269C8.99675 15.3269 9.269 15.2894 9.52175 15.2242C8.83757 15.086 8.22236 14.7152 7.78071 14.1747C7.33907 13.6342 7.09827 12.9574 7.09925 12.2594V12.2219C7.502 12.4462 7.96925 12.5864 8.46425 12.6052C8.04957 12.3296 7.70954 11.9557 7.4745 11.5168C7.23947 11.0778 7.11673 10.5876 7.11725 10.0897C7.11725 9.52867 7.2665 9.01417 7.52825 8.56567C8.28735 9.49944 9.23413 10.2633 10.3073 10.8079C11.3804 11.3525 12.5559 11.6656 13.7578 11.7269C13.7112 11.5019 13.6827 11.2687 13.6827 11.0347C13.6826 10.6379 13.7606 10.245 13.9123 9.87835C14.0641 9.51174 14.2866 9.17863 14.5671 8.89806C14.8477 8.6175 15.1808 8.39498 15.5474 8.24323C15.914 8.09148 16.307 8.01348 16.7037 8.01367C17.5737 8.01367 18.359 8.37817 18.911 8.96767C19.5873 8.83689 20.2359 8.58999 20.828 8.23792C20.6026 8.93603 20.1303 9.528 19.4998 9.90292C20.0996 9.83451 20.6858 9.67676 21.239 9.43492C20.8258 10.0372 20.3139 10.5654 19.7247 10.9972Z" fill="#040404"/>
</svg>
