<svg width="163" height="44" viewBox="0 0 163 44" fill="none" xmlns="http://www.w3.org/2000/svg">
<g clip-path="url(#clip0_194_2604)">
<path d="M19.0832 27.1942C19.0832 23.9604 18.0801 21.4364 16.0738 19.6221C14.0676 17.8078 11.1879 16.8973 7.43484 16.8906H0V37.6931H1.66668C2.06628 37.7013 2.46335 37.6286 2.8334 37.4792C3.20345 37.3299 3.53864 37.1072 3.81827 36.8249C4.09978 36.5501 4.32188 36.2217 4.47108 35.8595C4.62029 35.4973 4.69349 35.1089 4.68625 34.7179C4.68625 34.7179 4.68625 34.7038 4.68625 34.6977C4.68625 34.6917 4.68625 34.6856 4.68625 34.6776V33.3279V20.9375H7.31463C9.70258 20.9375 11.4732 21.4881 12.6264 22.5893C13.7796 23.6905 14.3569 25.263 14.3583 27.307C14.3583 29.3495 13.781 30.9067 12.6264 31.9783C12.5958 32.0085 12.5591 32.0327 12.5266 32.0609C11.3801 33.0735 9.76302 33.5817 7.67526 33.5858H5.23026V34.0874C5.27934 34.998 5.67278 35.8572 6.33255 36.4945C6.68827 36.8535 7.11457 37.1366 7.58518 37.3265C8.05579 37.5163 8.56074 37.6089 9.06891 37.5984C9.19116 37.5984 9.31137 37.5984 9.42955 37.5823C9.48456 37.5823 9.53957 37.5702 9.59459 37.5622C12.4172 37.2479 14.6 36.3488 16.1431 34.8649C18.1032 32.9741 19.0832 30.4172 19.0832 27.1942Z" fill="black"/>
<path d="M36.0337 19.6423C35.5893 19.2114 35.3101 18.6414 35.2438 18.0295C35.1775 17.4177 35.3282 16.8021 35.6702 16.288C36.0122 15.7738 36.5242 15.3931 37.1187 15.2109C37.7131 15.0287 38.3532 15.0562 38.9294 15.2889C39.5056 15.5216 39.9821 15.9449 40.2775 16.4865C40.573 17.0281 40.669 17.6543 40.5491 18.2581C40.4292 18.8619 40.1009 19.4058 39.6203 19.7968C39.1397 20.1878 38.5367 20.4016 37.9143 20.4017C37.5649 20.4093 37.2176 20.3459 36.8941 20.2152C36.5706 20.0846 36.2777 19.8896 36.0337 19.6423Z" fill="black"/>
<path d="M40.1714 21.6807H35.6562V37.6909H40.1714V21.6807Z" fill="black"/>
<path d="M46.4663 37.6929H41.9512V15.6113H46.4663V37.6929Z" fill="black"/>
<path d="M51.0762 44C49.4884 44 47.9942 43.3655 46.5937 42.0964L48.6414 38.7928C49.4035 39.5261 50.1859 39.8934 50.9886 39.8947C51.2057 39.89 51.4182 39.8324 51.6073 39.727C51.7964 39.6215 51.9562 39.4716 52.0726 39.2904C52.362 38.9188 52.5208 38.4641 52.5249 37.9951C52.5249 37.5399 50.4378 32.1011 46.2637 21.6787H51.0803L55.0127 31.6519L58.9553 21.6807H63.7739L56.2535 40.5494C55.8536 41.5888 55.1347 42.4784 54.1977 43.0935C53.2717 43.6963 52.1848 44.0119 51.0762 44Z" fill="black"/>
<path d="M68.9712 21.0422C68.7511 21.2164 68.5752 21.4389 68.4574 21.6921C68.3396 21.9453 68.2832 22.2221 68.2927 22.5007C68.2896 22.7921 68.3647 23.0791 68.5103 23.3325C68.656 23.5859 68.8671 23.7965 69.122 23.9429C69.6653 24.2988 70.9394 24.7205 72.9443 25.208C74.9492 25.6954 76.4991 26.4247 77.5939 27.3956C78.6982 28.3692 79.2504 29.788 79.2504 31.652C79.2504 33.5159 78.5427 35.028 77.1273 36.1883C75.7133 37.35 73.8524 37.9308 71.5446 37.9308C68.2139 37.9308 65.214 36.7107 62.5449 34.2706L65.3424 30.8764C67.6095 32.8411 69.7067 33.8235 71.6342 33.8235C72.4967 33.8235 73.1759 33.6401 73.6717 33.2735C73.9084 33.104 74.0995 32.8796 74.2281 32.6201C74.3567 32.3605 74.4189 32.0738 74.4093 31.7849C74.4165 31.4917 74.3485 31.2014 74.2117 30.9411C74.0749 30.6808 73.8737 30.459 73.6269 30.2963C73.1053 29.9297 72.0716 29.5577 70.5258 29.1803C68.0808 28.6056 66.2898 27.8569 65.1529 26.9343C64.016 26.0117 63.4496 24.5634 63.4536 22.5893C63.4536 20.6152 64.1708 19.0923 65.6052 18.0207C67.0396 16.949 68.8306 16.4119 70.9781 16.4092C72.4102 16.4152 73.8313 16.6562 75.1835 17.1223C76.5229 17.5607 77.767 18.244 78.851 19.1366L76.4733 22.5289C74.6449 21.1591 72.7582 20.4742 70.8131 20.4742C70.0388 20.4903 69.4215 20.6756 68.9712 21.0422Z" fill="black"/>
<path d="M96.4142 29.6856C96.4142 32.0089 95.5992 33.9635 93.9692 35.5495C92.3392 37.1355 90.2997 37.9291 87.8506 37.9305C85.3921 37.9305 83.3505 37.1368 81.7259 35.5495C80.1014 33.9622 79.2864 32.0075 79.2809 29.6856C79.2587 28.5927 79.4643 27.507 79.885 26.4961C80.3056 25.4852 80.9323 24.5708 81.7259 23.8097C83.3559 22.2116 85.3975 21.4126 87.8506 21.4126C90.3038 21.4126 92.3454 22.2116 93.9754 23.8097C94.7679 24.5713 95.3934 25.486 95.813 26.4969C96.2326 27.5077 96.4373 28.5932 96.4142 29.6856ZM83.8327 29.6856C83.8327 30.995 84.209 32.0619 84.9615 32.8865C85.3324 33.2762 85.7801 33.5868 86.2769 33.7991C86.7738 34.0114 87.3094 34.1209 87.8506 34.1209C88.3919 34.1209 88.9275 34.0114 89.4243 33.7991C89.9212 33.5868 90.3689 33.2762 90.7398 32.8865C91.4937 32.0633 91.8699 30.9963 91.8686 29.6856C91.8672 28.375 91.491 27.3006 90.7398 26.4626C90.3718 26.0681 89.925 25.7532 89.4278 25.5378C88.9305 25.3225 88.3935 25.2113 87.8506 25.2113C87.3078 25.2113 86.7708 25.3225 86.2735 25.5378C85.7763 25.7532 85.3295 26.0681 84.9615 26.4626C84.2076 27.3033 83.8313 28.3776 83.8327 29.6856Z" fill="black"/>
<path d="M105.087 33.9723C106.593 33.9723 107.948 33.2283 109.15 31.7403L111.829 34.7156C109.743 36.8642 107.485 37.9386 105.056 37.9386C102.628 37.9386 100.576 37.1771 98.901 35.6543C97.2262 34.1354 96.3881 32.1513 96.3867 29.7018C96.3854 27.2523 97.2336 25.2581 98.9316 23.7191C100.565 22.2055 102.728 21.3785 104.967 21.4126C106.181 21.4235 107.382 21.6663 108.504 22.1277C109.696 22.6003 110.771 23.321 111.656 24.2408L109.307 27.2765C108.792 26.6818 108.156 26.2018 107.439 25.8685C106.723 25.5351 105.944 25.3559 105.152 25.3427C104.022 25.3215 102.928 25.7313 102.096 26.4869C101.241 27.2523 100.815 28.3139 100.816 29.6716C100.818 31.0293 101.243 32.0835 102.092 32.8342C102.907 33.5772 103.978 33.9843 105.087 33.9723Z" fill="black"/>
<path d="M112.747 19.6423C112.302 19.2114 112.023 18.6414 111.957 18.0295C111.89 17.4177 112.041 16.8021 112.383 16.288C112.725 15.7738 113.237 15.3931 113.832 15.2109C114.426 15.0287 115.066 15.0562 115.642 15.2889C116.218 15.5216 116.695 15.9449 116.99 16.4865C117.286 17.0281 117.382 17.6543 117.262 18.2581C117.142 18.8619 116.814 19.4058 116.333 19.7968C115.853 20.1878 115.25 20.4016 114.627 20.4017C114.278 20.4093 113.931 20.3459 113.607 20.2152C113.283 20.0846 112.991 19.8895 112.747 19.6423ZM116.885 37.6931H112.37V21.6808H116.885V37.6931Z" fill="black"/>
<path d="M138.609 37.6929H134.094V15.6113H138.609V37.6929Z" fill="black"/>
<path d="M130.581 22.8711C129.336 21.9002 127.73 21.4141 125.765 21.4127C123.15 21.3775 120.594 22.1819 118.481 23.7051L120.498 26.5897C121.171 26.0965 121.917 25.7098 122.71 25.4435C123.505 25.1494 124.344 24.992 125.192 24.9782C127.018 24.9782 127.931 25.8316 127.933 27.5385V27.6271H124.56C122.474 27.6271 120.828 28.034 119.624 28.8478C118.419 29.6616 117.817 30.8863 117.818 32.522C117.818 34.1604 118.4 35.4697 119.565 36.4501C120.729 37.4304 122.167 37.9239 123.88 37.9306C125.578 37.9306 127.004 37.2216 128.159 35.8034L128.197 35.7571V35.9283C128.375 36.4466 128.713 36.8963 129.164 37.2132C129.615 37.5301 130.156 37.698 130.71 37.6929H132.442V27.4841C132.446 25.3811 131.826 23.8434 130.581 22.8711ZM127.902 31.5914C127.915 31.965 127.839 32.3363 127.679 32.6752C127.519 33.014 127.281 33.3108 126.983 33.5413C126.384 34.0227 125.634 34.2808 124.862 34.2705C124.059 34.2705 123.436 34.1154 123.01 33.8092C122.798 33.6595 122.628 33.4597 122.516 33.2281C122.403 32.9965 122.351 32.7405 122.364 32.4837C122.364 31.3745 123.267 30.8192 125.072 30.8179H127.902V31.5914Z" fill="black"/>
<path d="M32.13 22.8712C30.8871 21.9002 29.2823 21.4141 27.3154 21.4128C24.7004 21.3769 22.1442 22.1814 20.0313 23.7051L22.0464 26.5897C22.7199 26.0973 23.4663 25.7107 24.2591 25.4435C25.0542 25.1496 25.8942 24.9922 26.7429 24.9782C28.5685 24.9782 29.4813 25.8316 29.4813 27.5385V27.6271H26.1112C24.0235 27.6271 22.3778 28.034 21.1744 28.8478C19.9709 29.6616 19.3691 30.8864 19.3691 32.5221C19.3691 34.1604 19.9505 35.4698 21.1132 36.4501C22.276 37.4304 23.7158 37.9219 25.4327 37.9246C27.1429 37.9246 28.578 37.2061 29.738 35.7692C29.738 35.7894 29.7482 35.8095 29.7522 35.8276C29.9152 36.3684 30.2516 36.8421 30.7106 37.1775C31.1696 37.5128 31.7264 37.6916 32.2971 37.6869H33.9964V33.0498V27.4841C33.9964 25.3811 33.3742 23.8434 32.13 22.8712ZM29.4527 31.5914C29.4653 31.9649 29.3886 32.3361 29.2289 32.6749C29.0693 33.0137 28.8311 33.3105 28.5338 33.5413C27.9343 34.0226 27.183 34.2807 26.4107 34.2705C25.608 34.2705 24.9845 34.1154 24.5607 33.8092C24.349 33.6597 24.1787 33.4599 24.0655 33.2283C23.9523 32.9967 23.8998 32.7407 23.9128 32.4838C23.9128 31.3745 24.8161 30.8192 26.6226 30.8179H29.4527V31.5914ZM29.6565 35.0723C29.6562 35.1929 29.6644 35.3133 29.6809 35.4328C29.6617 35.3135 29.6508 35.193 29.6483 35.0723H29.6565Z" fill="black"/>
<path d="M152.171 21.4128C158.152 21.4128 163 16.6194 163 10.7064C163 4.79342 158.152 0 152.171 0C146.19 0 141.342 4.79342 141.342 10.7064C141.342 16.6194 146.19 21.4128 152.171 21.4128Z" fill="#005F61"/>
<path d="M145.245 11.0791H149.273L147.321 20.7622H143.293L145.245 11.0791Z" fill="#FFA400"/>
<path d="M157.719 4.10352V8.48881C157.091 8.18058 156.408 7.99651 155.708 7.94694C155.531 7.93083 155.349 7.92479 155.164 7.92479C153.603 7.92479 152.307 8.43241 151.274 9.44765C151.04 9.67741 150.826 9.92752 150.637 10.195C150.024 11.0711 149.704 12.1153 149.724 13.1803C149.709 13.8732 149.839 14.5616 150.106 15.2025C150.373 15.8434 150.771 16.4229 151.274 16.9049C151.62 17.2446 152.013 17.5348 152.44 17.767C153.193 18.1679 154.03 18.3887 154.885 18.4116H155.166C156.188 18.4321 157.196 18.1713 158.078 17.6582C158.109 17.6995 158.143 17.7385 158.179 17.7751C158.333 17.9298 158.516 18.0523 158.718 18.1354C158.921 18.2185 159.138 18.2603 159.357 18.2585H159.386H159.414H160.616V4.10352H157.719ZM157 15.2128C156.67 15.5834 156.227 15.838 155.738 15.938C155.55 15.9774 155.357 15.9969 155.164 15.9964C154.819 16.0068 154.476 15.9419 154.159 15.8065C153.842 15.6711 153.559 15.4684 153.33 15.2128C152.836 14.6514 152.578 13.9241 152.609 13.1803C152.579 12.434 152.836 11.7041 153.328 11.1377C153.582 10.8492 153.906 10.6289 154.269 10.4971C154.555 10.3936 154.858 10.3417 155.162 10.3441C155.508 10.3345 155.852 10.4007 156.169 10.5379C156.486 10.6751 156.768 10.88 156.996 11.1377C157.488 11.7043 157.744 12.4342 157.713 13.1803C157.746 13.923 157.491 14.6502 157 15.2128Z" fill="#FFA400"/>
<path d="M146.26 9.26658C146.049 9.06201 145.882 8.81692 145.77 8.54637C145.659 8.27583 145.604 7.98554 145.61 7.69335C145.61 7.10568 145.846 6.54208 146.266 6.12654C146.687 5.71099 147.257 5.47754 147.851 5.47754C148.445 5.47754 149.016 5.71099 149.436 6.12654C149.856 6.54208 150.092 7.10568 150.092 7.69335C150.095 8.13347 149.965 8.56437 149.719 8.93113C149.473 9.29789 149.122 9.58389 148.711 9.75266C148.299 9.92143 147.847 9.96533 147.41 9.87876C146.974 9.79219 146.573 9.57907 146.26 9.26658Z" fill="#FFA400"/>
</g>
<defs>
<clipPath id="clip0_194_2604">
<rect width="163" height="44" fill="white"/>
</clipPath>
</defs>
</svg>
