<svg width="475" height="400" viewBox="0 0 475 400" fill="none" xmlns="http://www.w3.org/2000/svg">
<rect width="475" height="400" rx="12" fill="#C4C4C4"/>
<path d="M219.246 195.833C222.698 195.833 225.496 193.035 225.496 189.583C225.496 186.132 222.698 183.333 219.246 183.333C215.794 183.333 212.996 186.132 212.996 189.583C212.996 193.035 215.794 195.833 219.246 195.833Z" fill="black"/>
<path d="M231.746 208.333L225.496 200L212.996 216.667H262.996L244.246 191.667L231.746 208.333Z" fill="black"/>
<path d="M271.33 166.667H204.663C200.068 166.667 196.33 170.404 196.33 175V225C196.33 229.596 200.068 233.333 204.663 233.333H271.33C275.926 233.333 279.663 229.596 279.663 225V175C279.663 170.404 275.926 166.667 271.33 166.667ZM204.663 225V175H271.33L271.338 225H204.663Z" fill="black"/>
</svg>
